<svg height="289" xmlns:ev="http://www.w3.org/2001/xml-events" width="850" viewBox="0 0 850 289" xmlns="http://www.w3.org/2000/svg" xmlns:xlink="http://www.w3.org/1999/xlink"><defs/><g id="page1" transform="translate(5.5,5.5)"><rect x="0" height="279" y="0" width="840" fill="none"/><g id="group1" transform="translate(50.000000,51.000000)"><g id="group2" transform="translate(115.000000,30.000000)"><path id="shape3" stroke-width="1" fill="#ffffff" d="M.0,14.0C.0,6.3,6.3,.0,14.0,.0C21.7,.0,28.0,6.3,28.0,14.0C28.0,21.7,21.7,28.0,14.0,28.0C6.3,28.0,.0,21.7,.0,14.0z" stroke="#0d0d0d" fill-rule="nonzero"/><path id="shape4" stroke-width="1" fill="none" d="M.0,.0L19.3,19.3M.0,19.3L19.3,.0" stroke="#000000" transform="matrix(-1.000000,0.000000,0.000000,1.000000,23.660000,4.340000)"/></g><g id="group5" transform="translate(115.000000,90.000000)"><path id="shape6" stroke-width="1" fill="#ffffff" d="M.0,14.0C.0,6.3,6.3,.0,14.0,.0C21.7,.0,28.0,6.3,28.0,14.0C28.0,21.7,21.7,28.0,14.0,28.0C6.3,28.0,.0,21.7,.0,14.0z" stroke="#0d0d0d" fill-rule="nonzero"/><path id="shape7" stroke-width="1" fill="none" d="M.0,.0L19.3,19.3M.0,19.3L19.3,.0" stroke="#000000" transform="matrix(-1.000000,0.000000,0.000000,1.000000,23.660000,4.340000)"/></g><g id="group8" transform="translate(116.000000,150.000000)"><path id="shape9" stroke-width="1" fill="#ffffff" d="M.0,14.0C.0,6.3,6.3,.0,14.0,.0C21.7,.0,28.0,6.3,28.0,14.0C28.0,21.7,21.7,28.0,14.0,28.0C6.3,28.0,.0,21.7,.0,14.0z" stroke="#0d0d0d" fill-rule="nonzero"/><path id="shape10" stroke-width="1" fill="none" d="M.0,.0L19.3,19.3M.0,19.3L19.3,.0" stroke="#000000" transform="matrix(-1.000000,0.000000,0.000000,1.000000,23.660000,4.340000)"/></g><g id="group11" transform="translate(189.000000,30.000000)"><path id="shape12" stroke-width="1" fill="#ffffff" d="M.0,14.0C.0,6.3,6.3,.0,14.0,.0C21.7,.0,28.0,6.3,28.0,14.0C28.0,21.7,21.7,28.0,14.0,28.0C6.3,28.0,.0,21.7,.0,14.0z" stroke="#0d0d0d" fill-rule="nonzero"/><path id="shape13" stroke-width="1" fill="none" d="M8.8,.0L.0,.0L6.2,6.0L.0,12.1L8.8,12.1" stroke="#000000" transform="translate(9.586530,7.957680)"/></g><g id="group14" transform="translate(189.000000,90.000000)"><path id="shape15" stroke-width="1" fill="#ffffff" d="M.0,14.0C.0,6.3,6.3,.0,14.0,.0C21.7,.0,28.0,6.3,28.0,14.0C28.0,21.7,21.7,28.0,14.0,28.0C6.3,28.0,.0,21.7,.0,14.0z" stroke="#0d0d0d" fill-rule="nonzero"/><path id="shape16" stroke-width="1" fill="none" d="M8.8,.0L.0,.0L6.2,6.0L.0,12.1L8.8,12.1" stroke="#000000" transform="translate(9.586530,7.957680)"/></g><g id="group17" transform="translate(189.000000,150.000000)"><path id="shape18" stroke-width="1" fill="#ffffff" d="M.0,14.0C.0,6.3,6.3,.0,14.0,.0C21.7,.0,28.0,6.3,28.0,14.0C28.0,21.7,21.7,28.0,14.0,28.0C6.3,28.0,.0,21.7,.0,14.0z" stroke="#0d0d0d" fill-rule="nonzero"/><path id="shape19" stroke-width="1" fill="none" d="M8.8,.0L.0,.0L6.2,6.0L.0,12.1L8.8,12.1" stroke="#000000" transform="translate(9.586530,7.957680)"/></g><path id="shape20" stroke-width="1" fill="none" d="M.0,.0L46.0,.0" stroke="#191919" transform="translate(143.000000,44.000000)"/><path id="shape21" stroke-width="1" fill="none" d="M.0,.0L46.0,.0" stroke="#191919" transform="translate(143.000000,104.000000)"/><path id="shape22" stroke-width="1" fill="none" d="M.0,.0L45.0,.0" stroke="#191919" transform="translate(144.000000,164.000000)"/><path id="shape23" stroke-width="1" fill="none" d="M.0,.0L-26.0,.0" stroke="#191919" transform="translate(115.000000,44.000000)"/><path id="shape24" stroke-width="1" fill="none" d="M.0,.0L-27.0,.0" stroke="#191919" transform="translate(116.000000,164.000000)"/><path id="shape25" stroke-width="1" fill="none" d="M.0,120.0L.0,.0" stroke="#000000" transform="translate(88.783000,43.999800)"/><path id="shape26" stroke-width="1" fill="none" d="M.0,.0L-26.2,.0" stroke="#191919" transform="translate(115.000000,104.000000)"/><path id="shape27" stroke-width="1" fill="none" d="M.0,.0L22.0,.0" stroke="#191919" transform="translate(217.000000,44.000000)"/><path id="shape28" stroke-width="1" fill="none" d="M.0,.0L22.0,-0.0" stroke="#191919" transform="translate(217.000000,104.000000)"/><path id="shape29" stroke-width="1" fill="none" d="M.0,.0L23.0,.0" stroke="#191919" transform="translate(217.000000,164.000000)"/><g id="shape30" transform="translate(39.000000,104.113000)"><path stroke-width="1" fill="none" d="M.0,.0L43.8,.0" stroke="#191919"/><path stroke-width="1" fill="#191919" d="M43.8,-3.0L49.8,.0L43.8,3.0L43.8,-3.0" stroke="#191919" stroke-linecap="round"/></g><g id="shape31" transform="translate(-11.000000,78.500000)"><text xml:space="preserve" style="fill:#000000;font-family:Times New Roman,PingFang SC,Mircrosoft YaHei,Arial;font-size:10.00pt"><tspan x="29.7" y="17.7" style="font-family:Times New Roman,PingFang SC,Mircrosoft YaHei,Arial">input signal</tspan></text></g><g id="shape32" transform="translate(129.000000,14.000000)"><path stroke-width="1" fill="none" d="M.0,.0L.0,10.0" stroke="#191919"/><path stroke-width="1" fill="#191919" d="M3.0,10.0L.0,16.0L-3.0,10.0L3.0,10.0" stroke="#191919" stroke-linecap="round"/></g><g id="shape33" transform="translate(85.000000,0.000000)"><text xml:space="preserve" style="fill:#000000;font-family:Times New Roman,PingFang SC,Mircrosoft YaHei,Arial;font-size:10.00pt"><tspan x="48.7" y="20.7" style="font-family:Times New Roman,PingFang SC,Mircrosoft YaHei,Arial">ğœ™_1</tspan></text></g><g id="shape34" transform="translate(85.000000,60.000000)"><text xml:space="preserve" style="fill:#000000;font-family:Times New Roman,PingFang SC,Mircrosoft YaHei,Arial;font-size:10.00pt"><tspan x="48.7" y="20.7" style="font-family:Times New Roman,PingFang SC,Mircrosoft YaHei,Arial">ğœ™_2</tspan></text></g><g id="shape35" transform="translate(94.000000,126.000000)"><text xml:space="preserve" style="fill:#000000;font-family:Times New Roman,PingFang SC,Mircrosoft YaHei,Arial;font-size:10.00pt"><tspan x="46.3" y="20.7" style="font-family:Times New Roman,PingFang SC,Mircrosoft YaHei,Arial">ğœ™_M</tspan></text></g><g id="shape36" transform="translate(259.000000,14.000000)"><path stroke-width="1" fill="none" d="M.0,.0L.0,14.0" stroke="#191919"/><path stroke-width="1" fill="#191919" d="M3.0,14.0L.0,20.0L-3.0,14.0L3.0,14.0" stroke="#191919" stroke-linecap="round"/></g><g id="shape37" transform="translate(245.000000,4.000000)"><text xml:space="preserve" style="fill:#000000;font-family:Times New Roman,PingFang SC,Mircrosoft YaHei,Arial;font-size:10.00pt"><tspan x="17.7" y="17.7" style="font-family:Times New Roman,PingFang SC,Mircrosoft YaHei,Arial">low sample rate</tspan></text></g><g id="shape38" transform="matrix(0.000000,-1.000000,1.000000,0.000000,144.000000,187.000000)"><text xml:space="preserve" style="fill:#000000;font-family:Times New Roman,PingFang SC,Mircrosoft YaHei,Arial;font-size:10.00pt"><tspan x="55.0" y="17.7" style="font-family:Times New Roman,PingFang SC,Mircrosoft YaHei,Arial">...</tspan></text></g><g id="group39" transform="translate(239.000000,41.000000)"><path id="shape40" stroke-width="1" fill="none" d="M.0,.0L32.0,-15.0" stroke="#000000" transform="translate(0.000000,3.000000)"/><path id="shape41" stroke-width="1" fill="#ffffff" d="M.0,3.0C.0,1.3,1.3,.0,3.0,.0C4.7,.0,6.0,1.3,6.0,3.0C6.0,4.7,4.7,6.0,3.0,6.0C1.3,6.0,.0,4.7,.0,3.0z" stroke="#000000" fill-rule="nonzero" transform="translate(-3.000000,0.000000)"/><path id="shape42" stroke-width="1" fill="#ffffff" d="M.0,3.0C.0,1.3,1.3,.0,3.0,.0C4.7,.0,6.0,1.3,6.0,3.0C6.0,4.7,4.7,6.0,3.0,6.0C1.3,6.0,.0,4.7,.0,3.0z" stroke="#000000" fill-rule="nonzero" transform="translate(35.000000,0.000000)"/></g><g id="group43" transform="translate(239.000000,101.000000)"><path id="shape44" stroke-width="1" fill="none" d="M.0,.0L32.0,-15.0" stroke="#000000" transform="translate(0.000000,3.000000)"/><path id="shape45" stroke-width="1" fill="#ffffff" d="M.0,3.0C.0,1.3,1.3,.0,3.0,.0C4.7,.0,6.0,1.3,6.0,3.0C6.0,4.7,4.7,6.0,3.0,6.0C1.3,6.0,.0,4.7,.0,3.0z" stroke="#000000" fill-rule="nonzero" transform="translate(-3.000000,0.000000)"/><path id="shape46" stroke-width="1" fill="#ffffff" d="M.0,3.0C.0,1.3,1.3,.0,3.0,.0C4.7,.0,6.0,1.3,6.0,3.0C6.0,4.7,4.7,6.0,3.0,6.0C1.3,6.0,.0,4.7,.0,3.0z" stroke="#000000" fill-rule="nonzero" transform="translate(35.000000,0.000000)"/></g><g id="group47" transform="translate(240.000000,161.000000)"><path id="shape48" stroke-width="1" fill="none" d="M.0,.0L32.0,-15.0" stroke="#000000" transform="translate(0.000000,3.000000)"/><path id="shape49" stroke-width="1" fill="#ffffff" d="M.0,3.0C.0,1.3,1.3,.0,3.0,.0C4.7,.0,6.0,1.3,6.0,3.0C6.0,4.7,4.7,6.0,3.0,6.0C1.3,6.0,.0,4.7,.0,3.0z" stroke="#000000" fill-rule="nonzero" transform="translate(-3.000000,0.000000)"/><path id="shape50" stroke-width="1" fill="#ffffff" d="M.0,3.0C.0,1.3,1.3,.0,3.0,.0C4.7,.0,6.0,1.3,6.0,3.0C6.0,4.7,4.7,6.0,3.0,6.0C1.3,6.0,.0,4.7,.0,3.0z" stroke="#000000" fill-rule="nonzero" transform="translate(35.000000,0.000000)"/></g><path id="shape51" stroke-width="1" fill="none" d="M.0,.0L52.0,.0" stroke="#191919" transform="translate(280.000000,44.000000)"/><path id="shape52" stroke-width="1" fill="none" d="M.0,.0L52.0,-0.0" stroke="#191919" transform="translate(280.000000,104.000000)"/><path id="shape53" stroke-width="1" fill="none" d="M.0,.0L51.0,.0" stroke="#191919" transform="translate(281.000000,164.000000)"/><g id="shape54" transform="translate(129.000000,74.000000)"><path stroke-width="1" fill="none" d="M.0,.0L.0,10.0" stroke="#191919"/><path stroke-width="1" fill="#191919" d="M3.0,10.0L.0,16.0L-3.0,10.0L3.0,10.0" stroke="#191919" stroke-linecap="round"/></g><g id="shape55" transform="translate(130.000000,134.000000)"><path stroke-width="1" fill="none" d="M.0,.0L-0.0,10.0" stroke="#191919"/><path stroke-width="1" fill="#191919" d="M3.0,10.0L-0.0,16.0L-3.0,10.0L3.0,10.0" stroke="#191919" stroke-linecap="round"/></g></g><g id="shape56" transform="translate(376.000000,78.000000)"><text xml:space="preserve" style="fill:#000000;font-family:Times New Roman,PingFang SC,Mircrosoft YaHei,Arial;font-size:10.00pt"><tspan x="15.0" y="17.7" style="font-family:Times New Roman,PingFang SC,Mircrosoft YaHei,Arial">output points y_1</tspan></text></g><g id="shape57" transform="translate(339.000000,138.000000)"><text xml:space="preserve" style="fill:#000000;font-family:Times New Roman,PingFang SC,Mircrosoft YaHei,Arial;font-size:10.00pt"><tspan x="50.3" y="17.7" style="font-family:Times New Roman,PingFang SC,Mircrosoft YaHei,Arial">y_2</tspan></text></g><g id="shape58" transform="translate(341.000000,198.000000)"><text xml:space="preserve" style="fill:#000000;font-family:Times New Roman,PingFang SC,Mircrosoft YaHei,Arial;font-size:10.00pt"><tspan x="48.0" y="17.7" style="font-family:Times New Roman,PingFang SC,Mircrosoft YaHei,Arial">y_M</tspan></text></g><g id="shape59" transform="translate(476.000000,198.000000)"><text xml:space="preserve" style="fill:#000000;font-family:Times New Roman,PingFang SC,Mircrosoft YaHei,Arial;font-size:10.00pt"><tspan x="42.3" y="17.7" style="font-family:Times New Roman,PingFang SC,Mircrosoft YaHei,Arial">input x</tspan></text></g><g id="group60" transform="translate(523.000000,39.000000)"><g id="group61" transform="translate(38.000000,33.000000)"><path id="shape62" stroke-width="1" fill="none" d="M.0,.0L20.0,.0" stroke="#191919" transform="matrix(0.000000,-1.000000,1.000000,0.000000,0.000000,20.000000)"/><path id="shape63" stroke-width="1" fill="none" d="M.0,.0L20.0,.0" stroke="#191919"/><path id="shape64" stroke-width="1" fill="none" d="M.0,.0L20.0,.0" stroke="#191919" transform="matrix(0.000000,1.000000,-1.000000,0.000000,20.000000,0.000000)"/><path id="shape65" stroke-width="1" fill="none" d="M.0,.0L20.0,.0" stroke="#191919" transform="translate(20.000000,20.000000)"/><path id="shape66" stroke-width="1" fill="none" d="M.0,.0L20.0,.0" stroke="#191919" transform="matrix(0.000000,-1.000000,1.000000,0.000000,40.000000,20.000000)"/><path id="shape67" stroke-width="1" fill="none" d="M.0,.0L40.0,.0" stroke="#191919" transform="translate(40.000000,0.000000)"/><path id="shape68" stroke-width="1" fill="none" d="M.0,.0L20.0,.0" stroke="#191919" transform="matrix(0.000000,1.000000,-1.000000,0.000000,80.000000,0.000000)"/><path id="shape69" stroke-width="1" fill="none" d="M.0,.0L20.0,.0" stroke="#191919" transform="translate(80.000000,20.000000)"/><path id="shape70" stroke-width="1" fill="none" d="M.0,.0L20.0,.0" stroke="#191919" transform="matrix(0.000000,-1.000000,1.000000,0.000000,100.000000,20.000000)"/><path id="shape71" stroke-width="1" fill="none" d="M.0,.0L20.0,.0" stroke="#191919" transform="translate(100.000000,0.000000)"/><path id="shape72" stroke-width="1" fill="none" d="M.0,.0L20.0,.0" stroke="#191919" transform="matrix(0.000000,1.000000,-1.000000,0.000000,120.000000,0.000000)"/><path id="shape73" stroke-width="1" fill="none" d="M.0,.0L60.0,.0" stroke="#191919" transform="translate(120.000000,20.000000)"/><path id="shape74" stroke-width="1" fill="none" d="M.0,.0L20.0,.0" stroke="#191919" transform="matrix(0.000000,-1.000000,1.000000,0.000000,180.000000,20.000000)"/><path id="shape75" stroke-width="1" fill="none" d="M.0,.0L40.0,.0" stroke="#191919" transform="translate(180.000000,0.000000)"/><path id="shape76" stroke-width="1" fill="none" d="M.0,.0L20.0,.0" stroke="#191919" transform="matrix(0.000000,1.000000,-1.000000,0.000000,220.000000,0.000000)"/><path id="shape77" stroke-width="1" fill="none" d="M.0,.0L20.0,.0" stroke="#191919" transform="translate(220.000000,20.000000)"/><path id="shape78" stroke-width="1" fill="none" d="M.0,.0L20.0,.0" stroke="#191919" transform="translate(0.000000,50.000000)"/><path id="shape79" stroke-width="1" fill="none" d="M.0,.0L20.0,.0" stroke="#191919" transform="matrix(0.000000,-1.000000,1.000000,0.000000,20.000000,50.000000)"/><path id="shape80" stroke-width="1" fill="none" d="M.0,.0L40.0,.0" stroke="#191919" transform="translate(20.000000,30.000000)"/><path id="shape81" stroke-width="1" fill="none" d="M.0,.0L20.0,.0" stroke="#191919" transform="matrix(0.000000,1.000000,-1.000000,0.000000,60.000000,30.000000)"/><path id="shape82" stroke-width="1" fill="none" d="M.0,.0L20.0,.0" stroke="#191919" transform="translate(60.000000,50.000000)"/><path id="shape83" stroke-width="1" fill="none" d="M.0,.0L20.0,.0" stroke="#191919" transform="matrix(0.000000,-1.000000,1.000000,0.000000,80.000000,50.000000)"/><path id="shape84" stroke-width="1" fill="none" d="M.0,.0L20.0,.0" stroke="#191919" transform="translate(80.000000,30.000000)"/><path id="shape85" stroke-width="1" fill="none" d="M.0,.0L20.0,.0" stroke="#191919" transform="matrix(0.000000,1.000000,-1.000000,0.000000,100.000000,30.000000)"/><path id="shape86" stroke-width="1" fill="none" d="M.0,.0L60.0,.0" stroke="#191919" transform="translate(100.000000,50.000000)"/><path id="shape87" stroke-width="1" fill="none" d="M.0,.0L20.0,.0" stroke="#191919" transform="matrix(0.000000,-1.000000,1.000000,0.000000,160.000000,50.000000)"/><path id="shape88" stroke-width="1" fill="none" d="M.0,.0L20.0,.0" stroke="#191919" transform="translate(160.000000,30.000000)"/><path id="shape89" stroke-width="1" fill="none" d="M.0,.0L20.0,.0" stroke="#191919" transform="matrix(0.000000,1.000000,-1.000000,0.000000,180.000000,30.000000)"/><path id="shape90" stroke-width="1" fill="none" d="M.0,.0L20.0,.0" stroke="#191919" transform="translate(180.000000,50.000000)"/><path id="shape91" stroke-width="1" fill="none" d="M.0,.0L20.0,.0" stroke="#191919" transform="matrix(0.000000,-1.000000,1.000000,0.000000,200.000000,50.000000)"/><path id="shape92" stroke-width="1" fill="none" d="M.0,.0L20.0,.0" stroke="#191919" transform="translate(200.000000,30.000000)"/><path id="shape93" stroke-width="1" fill="none" d="M.0,.0L20.0,.0" stroke="#191919" transform="matrix(0.000000,1.000000,-1.000000,0.000000,220.000000,30.000000)"/><path id="shape94" stroke-width="1" fill="none" d="M.0,.0L20.0,.0" stroke="#191919" transform="translate(220.000000,50.000000)"/></g><g id="group95" transform="translate(38.000000,113.000000)"><path id="shape96" stroke-width="1" fill="none" d="M.0,.0L40.0,.0" stroke="#191919" transform="translate(0.000000,20.000000)"/><path id="shape97" stroke-width="1" fill="none" d="M.0,.0L20.0,.0" stroke="#191919" transform="matrix(0.000000,-1.000000,1.000000,0.000000,40.000000,20.000000)"/><path id="shape98" stroke-width="1" fill="none" d="M.0,.0L20.0,.0" stroke="#191919" transform="translate(40.000000,0.000000)"/><path id="shape99" stroke-width="1" fill="none" d="M.0,.0L20.0,.0" stroke="#191919" transform="matrix(0.000000,1.000000,-1.000000,0.000000,60.000000,0.000000)"/><path id="shape100" stroke-width="1" fill="none" d="M.0,.0L20.0,.0" stroke="#191919" transform="translate(60.000000,20.000000)"/><path id="shape101" stroke-width="1" fill="none" d="M.0,.0L20.0,.0" stroke="#191919" transform="matrix(0.000000,-1.000000,1.000000,0.000000,80.000000,20.000000)"/><path id="shape102" stroke-width="1" fill="none" d="M.0,.0L20.0,.0" stroke="#191919" transform="translate(80.000000,0.000000)"/><path id="shape103" stroke-width="1" fill="none" d="M.0,.0L20.0,.0" stroke="#191919" transform="matrix(0.000000,1.000000,-1.000000,0.000000,100.000000,0.000000)"/><path id="shape104" stroke-width="1" fill="none" d="M.0,.0L20.0,.0" stroke="#191919" transform="translate(100.000000,20.000000)"/><path id="shape105" stroke-width="1" fill="none" d="M.0,.0L20.0,.0" stroke="#191919" transform="matrix(0.000000,-1.000000,1.000000,0.000000,120.000000,20.000000)"/><path id="shape106" stroke-width="1" fill="none" d="M.0,.0L60.0,.0" stroke="#191919" transform="translate(120.000000,0.000000)"/><path id="shape107" stroke-width="1" fill="none" d="M.0,.0L20.0,.0" stroke="#191919" transform="matrix(0.000000,1.000000,-1.000000,0.000000,180.000000,0.000000)"/><path id="shape108" stroke-width="1" fill="none" d="M.0,.0L20.0,.0" stroke="#191919" transform="translate(180.000000,20.000000)"/><path id="shape109" stroke-width="1" fill="none" d="M.0,.0L20.0,.0" stroke="#191919" transform="matrix(0.000000,-1.000000,1.000000,0.000000,200.000000,20.000000)"/><path id="shape110" stroke-width="1" fill="none" d="M.0,.0L40.0,.0" stroke="#191919" transform="translate(200.000000,0.000000)"/></g><g id="shape111" transform="translate(91.804000,82.460800)"><text xml:space="preserve" style="fill:#000000;font-family:Times New Roman,PingFang SC,Mircrosoft YaHei,Arial;font-size:10.00pt"><tspan x="55.0" y="17.7" style="font-family:Times New Roman,PingFang SC,Mircrosoft YaHei,Arial">...</tspan></text></g><g id="shape112" transform="translate(0.000000,34.000000)"><text xml:space="preserve" style="fill:#000000;font-family:Microsoft YaHei UI,PingFang SC,Mircrosoft YaHei,Arial;font-size:9.00pt"><tspan x="3.0" y="12.5" style="font-family:Microsoft YaHei UI,PingFang SC,Mircrosoft YaHei,Arial">ğœ™_1</tspan></text></g><g id="shape113" transform="translate(0.000000,50.000000)"><text xml:space="preserve" style="fill:#000000;font-family:Microsoft YaHei UI,PingFang SC,Mircrosoft YaHei,Arial;font-size:9.00pt"><tspan x="2.7" y="28.5" style="font-family:Microsoft YaHei UI,PingFang SC,Mircrosoft YaHei,Arial">ğœ™_2</tspan></text></g><g id="shape114" transform="translate(0.000000,100.000000)"><text xml:space="preserve" style="fill:#000000;font-family:Microsoft YaHei UI,PingFang SC,Mircrosoft YaHei,Arial;font-size:9.00pt"><tspan x="2.7" y="28.5" style="font-family:Microsoft YaHei UI,PingFang SC,Mircrosoft YaHei,Arial">ğœ™_M</tspan></text></g><path id="shape115" stroke-dasharray="2.5,2.5" stroke-width="1" fill="none" d="M.0,.0L186.0,.0" stroke="#191919" transform="matrix(0.000000,1.000000,-1.000000,0.000000,58.000000,14.000000)"/><path id="shape116" stroke-dasharray="2.5,2.5" stroke-width="1" fill="none" d="M.0,.0L188.0,.0" stroke="#191919" transform="matrix(0.000000,1.000000,-1.000000,0.000000,78.000000,13.000000)"/><g id="shape117" transform="translate(58.000000,21.000000)"><path stroke-width="1" fill="none" d="M7.8,.0L12.2,.0" stroke="#191919"/><path stroke-width="1" fill="#191919" d="M.0,.0L7.8,2.0L7.8,-2.0L.0,.0" stroke="#191919" stroke-linecap="round"/><path stroke-width="1" fill="#191919" d="M20.0,.0L12.2,-2.0L12.2,2.0L20.0,.0" stroke="#191919" stroke-linecap="round"/></g><g id="shape118" transform="translate(58.000000,0.000000)"><text xml:space="preserve" style="fill:#000000;font-family:Times New Roman,PingFang SC,Mircrosoft YaHei,Arial;font-size:3.00pt"><tspan x="2.7" y="14.5" style="font-family:Times New Roman,PingFang SC,Mircrosoft YaHei,Arial">T_NQY</tspan></text></g><g id="group119" transform="translate(38.000000,164.751500)"><path id="shape120" stroke-width="1" fill="none" d="M.0,.0C17.3,-6.1,34.5,-12.2,39.5,-6.7C44.5,-1.3,37.3,15.7,51.7,17.8C66.0,19.8,102.0,6.9,138.0,-6.0" stroke="#191919" transform="translate(0.000000,8.869300)"/><path id="shape121" stroke-width="1" fill="none" d="M.0,.0C8.9,-3.4,17.7,-6.7,30.9,-0.0C44.1,6.7,61.5,23.5,74.1,26.0C86.6,28.6,94.3,17.0,102.0,5.4" stroke="#191919" transform="translate(138.000000,2.869300)"/></g></g></g></svg>